<svg xmlns="http://www.w3.org/2000/svg" width="500" height="500" style="shape-rendering:geometricPrecision;text-rendering:geometricPrecision;image-rendering:optimizeQuality;fill-rule:evenodd;clip-rule:evenodd"><path style="opacity:.993" fill="#fefffe" d="M-.5-.5h500v70H-.5v-70Z"/><path style="opacity:.985" fill="#0f0b09" d="M-.5 71.5v-1h500v28c-.891.6098-1.891.9431-3 1-.214-1.6439.12-3.1439 1-4.5-.652-7.7758-1.319-15.6091-2-23.5-.255 1.8435-.422 3.8435-.5 6-.645 1.146-1.478 2.146-2.5 3 .88 1.4441 1.88 2.9441 3 4.5-2.612 4.4785-3.945 9.1452-4 14 1.006 1.338 2.006 2.671 3 4-2.06 1.493-2.393 3.326-1 5.5.917.627 1.917.961 3 1 .541 3.152-.459 5.652-3 7.5.88 1.356 1.214 2.856 1 4.5-1.052-.149-2.052.017-3 .5 1.256.417 1.923 1.25 2 2.5.215 1.679-.452 2.679-2 3 1.726 2.32 2.393 4.987 2 8-3 .333-4.333-1-4-4-2.829-.131-4.162.869-4 3-.952-1.545-1.285-3.212-1-5 .149-1.052-.017-2.052-.5-3-.748 1.832-1.748 3.499-3 5-.383-.556-.883-.889-1.5-1 .172-.992-.162-1.658-1-2 .166-6.009-.001-12.009-.5-18-.991.93-1.491 2.096-1.5 3.5 2.067 4.556 1.067 8.056-3 10.5.237-1.291-.096-2.291-1-3 .078-5.169-1.089-5.169-3.5 0-.808 3.527-.641 6.86.5 10-.096 4.61-1.096 4.944-3 1l-1 1c.381 2.241.548 4.574.5 7l1 1c.202-1.756.702-3.422 1.5-5 1 .333 1.667 1 2 2-.746 1.236-1.079 2.57-1 4 .137 5.598.137 10.931 0 16v7c-.247 4.5.086 8.833 1 13-.968 2.107-1.302 4.441-1 7h-1c-.978-.311-1.645-.978-2-2 .593-1.882 1.26-3.715 2-5.5-1.735-1.985-3.068-1.651-4 1 .808.308 1.475.808 2 1.5-.667.333-1.333.667-2 1 .271 2.547 1.271 4.547 3 6-1.037 2.155-1.703 4.488-2 7-.337 6.025-.004 11.858 1 17.5-.544.717-1.211 1.217-2 1.5v-4h-3v11c-.086.996.248 1.829 1 2.5 1.519-.331 2.852-.164 4 .5-.462 5.567-1.462 11.234-3 17 2.421 4.859 2.088 9.359-1 13.5 2.646 5.837 2.312 11.504-1 17 .928 1.976 2.095 3.809 3.5 5.5 1.087-2.432 1.587-2.098 1.5 1h-4c-.329 6.037.004 12.037 1 18 1 .667 2 1.333 3 2 .808-1.923 1.308-3.923 1.5-6 .175 3.711.675 7.378 1.5 11 .787-.742 1.453-1.575 2-2.5-.923-2.041-1.256-4.208-1-6.5-.009-1.808.491-3.475 1.5-5 .667 2.667 1.333 2.667 2 0 .414.457.914.791 1.5 1-.125 3.428.208 6.928 1 10.5-.167.5-.333 1-.5 1.5-.893-1.211-1.726-1.211-2.5 0 1.896.966 3.896 1.299 6 1v-8c.722-.418 1.222-1.084 1.5-2 .249 1.124.749 2.124 1.5 3 1.027-1.291 2.027-1.291 3 0 .437 1.574 1.437 2.741 3 3.5-1.284 1.297-1.117 2.464.5 3.5.374-.916.874-1.75 1.5-2.5-.956-3.394-1.289-6.894-1-10.5.667 0 1 .333 1 1 .689 1.274 1.523 1.274 2.5 0 .167 1.5.333 3 .5 4.5-.385 2.824-1.052 5.324-2 7.5h8v2c-14.337-.167-28.671 0-43 .5-5.493 12.979-10.493 26.145-15 39.5-4.862 12.585-9.529 25.252-14 38-3.392 7.84-6.392 15.84-9 24-.739.131-1.406-.036-2-.5.767-1.47 1.433-2.97 2-4.5 4.136-12.409 8.469-24.742 13-37 2.901-6.027 5.234-12.361 7-19 5.408-13.712 10.741-27.545 16-41.5-9.661-.5-19.328-.666-29-.5-1.333-.667-2.667-1.333-4-2 4.776-.361 9.776-.861 15-1.5 4.939-2.064 10.272-3.73 16-5 .979-2.403 2.479-3.236 4.5-2.5.46-2.214-.207-2.881-2-2 .023-5.537.856-10.871 2.5-16 1.333-4.333 1.333-8.667 0-13 .25-30.917.25-61.917 0-93a1561.807 1561.807 0 0 0-1.5-46c-.352-1.747-.852-3.414-1.5-5-.263-10.758.404-21.4249 2-32-2.1-.0228-3.933.6439-5.5 2-.5-.3333-1-.6667-1.5-1 2.111-3.5714 2.111-6.9047 0-10 .876.1309 1.543-.2025 2-1-1.453.4402-2.619-.2265-3.5-2-2.776 1.185-5.61 1.185-8.5 0-2.348.3483-3.682 1.6816-4 4v1c-.979-1.2653-1.979-2.5986-3-4-7.972-.9977-15.972-1.331-24-1h-1c.131-.8764-.202-1.5431-1-2-3.547.28-7.213.28-11 0h-30c-31.002-.1666-62.002 0-93 .5.333.3333.667.6667 1 1-2.176.1629-4.009.9963-5.5 2.5-1.11-1.5368-2.61-2.2035-4.5-2v3c-.904-.709-1.237-1.709-1-3h-4c.157 1.3734-.01 2.7068-.5 4-3.634-2.4641-7.301-2.4641-11 0-3.784-1.1371-7.618-1.1371-11.5 0-2.305 7.5235-3.971 15.1902-5 23 1.558 2.605 1.225 4.938-1 7 .496 6.182.829 12.515 1 19-.722-.418-1.222-1.084-1.5-2-.167.5-.333 1-.5 1.5.223 3.665.223 7.498 0 11.5v82c-.327 9.182.007 18.182 1 27-.299 7.391.035 14.724 1 22-.346 1.196-.846 1.196-1.5 0-.836 3.854.331 7.021 3.5 9.5-2.415 1.465-3.415 3.632-3 6.5 1.175-.219 2.175.114 3 1-.046 3.195-.379 6.528-1 10 1.848 2.978 3.848 3.312 6 1 2.311 2.4 4.811 3.733 7.5 4 .772-.145 1.439-.478 2-1 2 2.667 4 2.667 6 0 1.11 1.537 2.61 2.203 4.5 2 1.624.14 2.79-.527 3.5-2 2.072 2.594 4.239 2.594 6.5 0l2 2c1.22-1.211 2.387-1.211 3.5 0 .464-.594.631-1.261.5-2h3c.111.617.444 1.117 1 1.5 2.667.667 5.333.667 8 0-.805-1.113-1.472-2.279-2-3.5.617-.111 1.117-.444 1.5-1 .907 2.109 2.407 3.442 4.5 4 9 1.333 18 1.333 27 0h1c8.15.993 16.483 1.326 25 1-17.667.667-35.333 1.333-53 2h-63c-2.993 8.656-5.993 17.323-9 26-2.195 5.251-4.195 10.584-6 16-2.529 6.251-4.862 12.585-7 19-2.529 6.251-4.862 12.585-7 19-3.725 8.841-7.059 17.841-10 27-1.726 3.509-3.059 7.175-4 11-.904.709-1.237 1.709-1 3h126c0 .667-.333 1-1 1h-128v-2c3.901-8.356 7.234-17.023 10-26 2.187-4.395 3.854-9.062 5-14 2.571-5.037 4.571-10.371 6-16 2.571-5.037 4.571-10.371 6-16 2.571-5.037 4.571-10.371 6-16 2.513-5.047 4.513-10.38 6-16 2.513-5.047 4.513-10.38 6-16-66.667-.667-133.3333-1.333-200-2 67.67.333 135.337 0 203-1-1.189-.929-2.522-1.262-4-1 .418-.722 1.084-1.222 2-1.5-.597-1.062-.93-2.228-1-3.5-.16-1.855.507-3.188 2-4 1.333-53.333 1.333-106.667 0-160v-2c1.333-4.333 1.333-8.667 0-13 1.725-2.937 1.059-5.103-2-6.5.948-.483 1.948-.649 3-.5v-11c-.649-1.9771-.649-3.8105 0-5.5-.336-1.0299-1.003-1.5299-2-1.5 0-.6667-.333-1-1-1 .111-.6174.444-1.1174 1-1.5-3.189-.9808-3.522-2.3141-1-4-1.245-.7914-2.578-1.2914-4-1.5-.547-1.9847-1.547-3.6514-3-5 1.052.1495 2.052-.0172 3-.5-.333-.3333-.667-.6667-1-1 .805-1.1127 1.472-2.2794 2-3.5-1.068-.9345-2.401-1.2678-4-1v3c-1.459.0674-2.792-.2659-4-1 .418-.7216 1.084-1.2216 2-1.5-27.667-.1667-55.333-.3333-83-.5-28.008.0002-55.6748.6668-83 2 0 .6667-.3333 1-1 1v-1c-3.7762-1.3248-7.9428-1.9915-12.5-2-11.0268.464-22.1935.464-33.5 0 .26781 1.599-.06552 2.9324-1 4-.66667-1.3333-1.33333-2.6667-2-4Z"/><path style="opacity:1" fill="#fdf4e9" d="M48.5 73.5c-2.5182 1.2595-2.3515 2.5928.5 4 .4696-1.0768.3029-2.0768-.5-3 .6667 0 1-.3333 1-1 4.8264-1.6384 9.493-1.3051 14 1 4.1491-1.2687 8.4824-1.9354 13-2 4 .3333 8 .6667 12 1-1.0063.8957-1.0063 1.5623 0 2 .8857-.825 1.219-1.825 1-3 32.943.0428 65.943.0428 99 0-.128 2.1547.372 4.1547 1.5 6 3.466-1.6806 3.3-2.6806-.5-3v-3c5.991.0712 11.991.4045 18 1 1.847-1.0729 3.847-1.0729 6 0 1.208.7341 2.541 1.0674 4 1v-3c1.599-.2678 2.932.0655 4 1-1.052-.1495-2.052.0172-3 .5.333.3333.667.6667 1 1-.805 1.1127-1.472 2.2794-2 3.5 1.453 1.3486 2.453 3.0153 3 5 .671 1.3471.671 2.5138 0 3.5.667 1.3333 1.667 2.3333 3 3-2.401.805-2.234 1.6383.5 2.5.464-.5944.631-1.2611.5-2 .667 0 1 .3333 1 1-.077 1.2498-.744 2.0831-2 2.5 2.528 1.3159 2.528 2.4826 0 3.5l1.5 3c.417-1.256 1.25-1.9226 2.5-2v11c-1.052-.149-2.052.017-3 .5 3.059 1.397 3.725 3.563 2 6.5.151 2.754-.182 5.754-1 9-1.268-.928-2.601-1.095-4-.5 1.405 1.269 3.071 1.769 5 1.5v5c0 .667-.333 1-1 1 .006-3.048-.994-3.548-3-1.5.873 1.045 1.873 1.878 3 2.5.662 1.804.995 3.804 1 6-.14 2.543-.806 4.877-2 7 .346 1.196.846 1.196 1.5 0 .167 7.167.333 14.333.5 21.5-.151 41.026-.151 82.193 0 123.5-1.493.812-2.16 2.145-2 4 .07 1.272.403 2.438 1 3.5-.916.278-1.582.778-2 1.5-37.333 1.333-74.667 1.333-112 0 .407-1.262.74-2.595 1-4-.828-.915-1.828-1.581-3-2-2.149 1.653-3.816 3.653-5 6-34 1.333-68 1.333-102 0 .62395-.417.95728-1.084 1-2-1.02249-53.978-1.68915-107.978-2-162-.24923-21.515-.24923-41.5152 0-60 .93448-1.0676 1.26781-2.401 1-4 11.3065.464 22.4732.464 33.5 0 4.5572.0085 8.7238.6752 12.5 2Z"/><path style="opacity:1" fill="#d8d0c6" d="M213.5 73.5c-2.153-1.0729-4.153-1.0729-6 0-6.009-.5955-12.009-.9288-18-1v3c3.8.3194 3.966 1.3194.5 3-1.128-1.8453-1.628-3.8453-1.5-6-33.057.0428-66.057.0428-99 0 .219 1.175-.1143 2.175-1 3-1.0063-.4377-1.0063-1.1043 0-2-4-.3333-8-.6667-12-1-4.5176.0646-8.8509.7313-13 2-4.507-2.3051-9.1736-2.6384-14-1 27.3252-1.3332 54.992-1.9998 83-2 27.667.1667 55.333.3333 83 .5-.916.2784-1.582.7784-2 1.5Z"/><path style="opacity:1" fill="#c0b699" d="M365.5 71.5h2c-1.179 2.0065-.679 2.3398 1.5 1 .333 1.6667.667 3.3333 1 5 .561-.5219 1.228-.8552 2-1 1.011.3919 1.511 1.0585 1.5 2 .808-.3076 1.475-.8076 2-1.5-1.391-1.6501-2.891-2.1501-4.5-1.5-.667-.6667-.667-1.3333 0-2 2.041-.9231 4.208-1.2564 6.5-1-.219 1.175.114 2.175 1 3 1-1.3333 2-1.3333 3 0 2.562-3.1089 5.729-3.7755 9.5-2 .464-.5944.631-1.2611.5-2h4c1.889.822 3.889 1.6553 6 2.5-4.041.1735-8.041.6735-12 1.5 1.556 2.2015 2.723 2.2015 3.5 0 1.987.718 3.821 1.718 5.5 3 3.199-1.522 6.199-3.1887 9-5h1c-.131.7389.036 1.4056.5 2 1.726-1.0762 3.559-1.2429 5.5-.5-1.333.3333-2.667.6667-4 1 1.902.1992 3.402 1.0325 4.5 2.5 1.729-1.9337 3.729-1.9337 6 0 .383-.556.883-.8893 1.5-1 .311.9778.978 1.6445 2 2 1.211-.7739 1.211-1.6072 0-2.5 1.293-.49 2.627-.6567 4-.5 2.26 1.412 4.427 3.0787 6.5 5 .483-.948.649-1.948.5-3v-1c2.436.183 4.603-.4837 6.5-2 2.411-.2712 4.911.0621 7.5 1 2.111 3.0953 2.111 6.4286 0 10 .5.3333 1 .6667 1.5 1 1.567-1.3561 3.4-2.0228 5.5-2-1.596 10.5751-2.263 21.242-2 32-.934 1.068-1.268 2.401-1 4-.511 6.187-.511 12.521 0 19-1.845 1.495-2.178 3.162-1 5-.175 2.121.159 4.121 1 6-.668 1.963-1.002 3.963-1 6 1.34 1.188 2.007 2.688 2 4.5-.832 2.478-.999 4.978-.5 7.5.704-2.227 1.871-2.56 3.5-1 .25 31.083.25 62.083 0 93-.23 4.484-.23 8.817 0 13-1.644 5.129-2.477 10.463-2.5 16 1.793-.881 2.46-.214 2 2-2.021-.736-3.521.097-4.5 2.5-5.728 1.27-11.061 2.936-16 5-5.224.639-10.224 1.139-15 1.5-4.099-1.808-7.599-4.475-10.5-8-2.245-6.734-4.079-13.567-5.5-20.5 3.226-1.198 6.059-3.031 8.5-5.5 1.507-4.983 4.007-9.317 7.5-13-.387-1.774-1.053-3.441-2-5-2.839-2.339-5.505-4.839-8-7.5 1.564-2.974.898-5.307-2-7 1.655-1.444 2.322-3.278 2-5.5-1.322-.17-2.489.163-3.5 1-5.873-5.014-11.206-4.681-16 1l-1-1c-1.774 3.215-3.274 6.548-4.5 10 2.145 3.268 3.812 6.768 5 10.5-4.487 4.546-3.82 8.046 2 10.5 1.448 2.167 2.615 4.5 3.5 7 1.013 8.059 1.513 16.059 1.5 24-3.796 10.115-9.129 11.281-16 3.5-1.601-.273-3.101-.773-4.5-1.5-.295-2.431-1.462-4.264-3.5-5.5 1.247-1.494 1.247-2.994 0-4.5-.951.826-1.951.992-3 .5-3.57-4.351-6.904-8.184-10-11.5.746-1.236 1.079-2.57 1-4-1.322.17-2.489-.163-3.5-1-.977-2.24-1.477-4.573-1.5-7 3.004-.589 5.837-1.589 8.5-3 .833.333 1.667.667 2.5 1 .628 1.758 1.628 3.258 3 4.5 3.537 1.041 7.037 2.208 10.5 3.5 4.14-2.582 5.474-6.249 4-11-3.111-6.723-6.611-13.223-10.5-19.5 1.763-1.654 2.096-3.487 1-5.5 1.315-1.816 2.815-3.483 4.5-5 2.41-2.918 1.91-4.918-1.5-6-3.209 1.403-6.542 2.403-10 3-3.855-.546-7.522-1.546-11-3-4.27 1.042-4.937 3.209-2 6.5-1.601.273-3.101.773-4.5 1.5-.585 1.629-1.419 3.129-2.5 4.5.145.772.478 1.439 1 2-2.378.511-4.712 1.178-7 2-1.63 3.062-.63 4.729 3 5-1.172.419-2.172 1.085-3 2 .685 6.469 1.351 12.969 2 19.5-.333.667-.667 1.333-1 2 2.004 5.35 5.004 10.016 9 14 .798 1.578 1.298 3.244 1.5 5l1-1c1.27 2.37 1.77 4.87 1.5 7.5-3.809 3.405-7.809 6.572-12 9.5-1.96-.948-3.96-1.114-6-.5-.59-1.509-1.256-3.009-2-4.5-.411.762-.577 1.762-.5 3-1.868-1.172-3.702-1.005-5.5.5l1 1c-1.333.667-2.667.667-4 0 .667-.333 1.333-.667 2-1-.354-1.626-.354-3.459 0-5.5h-3c-.17 1.322.163 2.489 1 3.5-2 .667-4 1.333-6 2 1.333.333 2.667.667 4 1-2.667.667-5.333.667-8 0 2.095-.556 2.262-1.056.5-1.5-1.03.336-1.53 1.003-1.5 2h-1c-5.294-.182-5.294-.682 0-1.5-.916-.374-1.75-.874-2.5-1.5-5.032-.337-10.032.33-15 2-.739-1.074-1.739-1.741-3-2-2.253.877-4.419 1.877-6.5 3-2.093-.558-3.593-1.891-4.5-4-.383.556-.883.889-1.5 1-.617.111-1.117.444-1.5 1-.368-1.41-1.201-2.41-2.5-3-.596 1.216-.763 2.549-.5 4-.977-1.274-1.811-1.274-2.5 0h-3c-1.031-.749-2.198-1.415-3.5-2-3.943 1.751-6.277.418-7-4-.49 1.293-.657 2.627-.5 4h-3c-.067-1.901.267-3.734 1-5.5-1.099-4.263-1.766-8.596-2-13 1.766-11.973 3.099-24.973 4-39-.444-1.762-.944-1.595-1.5.5-.333 3.333-.667 6.667-1 10-2.298-8.617-2.464-17.117-.5-25.5-.418-2.763-1.084-5.43-2-8 1.458-2.077 2.124-4.41 2-7-.245-3.949-.579-7.949-1-12 1.853-7.032 2.687-14.199 2.5-21.5-1.922 8.052-3.089 16.219-3.5 24.5.09 6.153.09 12.32 0 18.5-.525.692-1.192 1.192-2 1.5.702 3.466 1.369 6.966 2 10.5-1.267 6.534-1.267 13.034 0 19.5.691 1.067 1.191 2.234 1.5 3.5.649-3.437 1.149-3.604 1.5-.5-.167.833-.333 1.667-.5 2.5l-1-1c-1.334 12.498-1.501 24.998-.5 37.5-.081 2.625-.748 4.959-2 7 .556.383.889.883 1 1.5-1.89.203-3.39-.463-4.5-2-2 2.667-4 2.667-6 0-.561.522-1.228.855-2 1-2.689-.267-5.189-1.6-7.5-4-1.175.219-2.175-.114-3-1 1.082-.249 2.415-.415 4-.5-1.497-2.207-3.497-2.874-6-2 1.383 1.461 1.049 2.294-1 2.5.621-3.472.954-6.805 1-10-.825-.886-1.825-1.219-3-1-.415-2.868.585-5.035 3-6.5-3.169-2.479-4.336-5.646-3.5-9.5.654 1.196 1.154 1.196 1.5 0-.965-7.276-1.299-14.609-1-22-.312-6.922.021-13.756 1-20.5-.617-2.277-1.284-4.444-2-6.5v-82c.688-2.52 1.688-5.02 3-7.5-.837-1.011-1.17-2.178-1-3.5-.171-6.485-.504-12.818-1-19 2.225-2.062 2.558-4.395 1-7 1.029-7.8098 2.695-15.4765 5-23 3.882-1.1371 7.716-1.1371 11.5 0 3.699-2.4641 7.366-2.4641 11 0 .49-1.2932.657-2.6266.5-4h4c-.237 1.291.096 2.291 1 3 2.167-.042 4.5.2914 7 1 2.751-.4554 4.918-1.7888 6.5-4 .617.9491.451 1.7825-.5 2.5 3.274.4799 6.274 1.6466 9 3.5 1.767-1.9247 3.934-3.2581 6.5-4 1.813 1.1091 2.646.4424 2.5-2 3.742-.7743 6.242.559 7.5 4 1-1.3333 2-2.6667 3-4 .701 4.7874 2.534 5.1207 5.5 1 1.76 2.5212 4.093 3.3545 7 2.5-1.425-1.3619-2.258-2.8619-2.5-4.5 1.923.8161 3.923 1.4828 6 2 6.104-1.673 11.937-1.0063 17.5 2 1.405-2.0967 3.238-2.4301 5.5-1 .833-.1667 1.667-.3333 2.5-.5-.333-.3333-.667-.6667-1-1 3.667-.6667 7.333-.6667 11 0-2.93 1.6591-5.93 1.9924-9 1-.367 1.7566.466 3.2566 2.5 4.5.483-.948.649-1.948.5-3 3.079-.2399 6.079.0934 9 1 3.112-.8505 3.446-2.0172 1-3.5 1.26-1.113 2.427-1.2797 3.5-.5.717-.5442 1.217-1.2109 1.5-2Z"/><path style="opacity:.706" fill="#726c5b" d="M367.5 71.5h24c.131.7389-.036 1.4056-.5 2-3.771-1.7755-6.938-1.1089-9.5 2-1-1.3333-2-1.3333-3 0-.886-.825-1.219-1.825-1-3-2.292-.2564-4.459.0769-6.5 1-.667.6667-.667 1.3333 0 2 1.609-.6501 3.109-.1501 4.5 1.5-.525.6924-1.192 1.1924-2 1.5.011-.9415-.489-1.6081-1.5-2-.772.1448-1.439.4781-2 1-.333-1.6667-.667-3.3333-1-5-2.179 1.3398-2.679 1.0065-1.5-1Z"/><path style="opacity:1" fill="#8c8570" d="M365.5 71.5c-.283.7891-.783 1.4558-1.5 2-1.073-.7797-2.24-.613-3.5.5 2.446 1.4828 2.112 2.6495-1 3.5-2.921-.9066-5.921-1.2399-9-1 .149 1.052-.017 2.052-.5 3-2.034-1.2434-2.867-2.7434-2.5-4.5 3.07.9924 6.07.6591 9-1-3.667-.6667-7.333-.6667-11 0 .333.3333.667.6667 1 1-.833.1667-1.667.3333-2.5.5-2.262-1.4301-4.095-1.0967-5.5 1-5.563-3.0063-11.396-3.673-17.5-2-2.077-.5172-4.077-1.1839-6-2 .242 1.6381 1.075 3.1381 2.5 4.5-2.907.8545-5.24.0212-7-2.5-2.966 4.1207-4.799 3.7874-5.5-1-1 1.3333-2 2.6667-3 4-1.258-3.441-3.758-4.7743-7.5-4 .146 2.4424-.687 3.1091-2.5 2-2.566.7419-4.733 2.0753-6.5 4-2.726-1.8534-5.726-3.0201-9-3.5.951-.7175 1.117-1.5509.5-2.5-1.582 2.2112-3.749 3.5446-6.5 4-2.5-.7086-4.833-1.042-7-1v-3c1.89-.2035 3.39.4632 4.5 2 1.491-1.5037 3.324-2.3371 5.5-2.5-.333-.3333-.667-.6667-1-1 30.998-.5 61.998-.6666 93-.5Z"/><path style="opacity:1" fill="#454237" d="M428.5 76.5c-1.373-.1567-2.707.01-4 .5 1.211.8928 1.211 1.7261 0 2.5-1.022-.3555-1.689-1.0222-2-2 .904-.709 1.237-1.709 1-3 2.281-.4227 3.948.244 5 2Z"/><path style="opacity:1" fill="#656051" d="M395.5 71.5c3.787.28 7.453.28 11 0 .798.4569 1.131 1.1236 1 2-2.801 1.8113-5.801 3.478-9 5-1.679-1.282-3.513-2.282-5.5-3-.777 2.2015-1.944 2.2015-3.5 0 3.959-.8265 7.959-1.3265 12-1.5-2.111-.8447-4.111-1.678-6-2.5Z"/><path style="opacity:1" fill="#837c69" d="M408.5 73.5c8.028-.331 16.028.0023 24 1 1.021 1.4014 2.021 2.7347 3 4 .149 1.052-.017 2.052-.5 3-2.073-1.9213-4.24-3.588-6.5-5-1.052-1.756-2.719-2.4227-5-2 .237 1.291-.096 2.291-1 3-.617.1107-1.117.444-1.5 1-2.271-1.9337-4.271-1.9337-6 0-1.098-1.4675-2.598-2.3008-4.5-2.5 1.333-.3333 2.667-.6667 4-1-1.941-.7429-3.774-.5762-5.5.5-.464-.5944-.631-1.2611-.5-2Z"/><path style="opacity:1" fill="#7f7b75" d="M48.5 73.5v1c.8029.9232.9696 1.9232.5 3-2.8515-1.4072-3.0182-2.7405-.5-4Z"/><path style="opacity:1" fill="#79756f" d="M207.5 73.5c1.183 1.0045 2.516 1.8378 4 2.5-2.144 3.2445-4.144 3.0779-6-.5.743-.6818 1.409-1.3485 2-2Z"/><path style="opacity:1" fill="#55534f" d="M221.5 72.5c-.528 1.2206-1.195 2.3873-2 3.5.333.3333.667.6667 1 1-.948.4828-1.948.6495-3 .5.528-1.2206 1.195-2.3873 2-3.5-.333-.3333-.667-.6667-1-1 .948-.4828 1.948-.6495 3-.5Z"/><path style="opacity:1" fill="#756f5e" d="M449.5 76.5c-2.589-.9379-5.089-1.2712-7.5-1-1.897 1.5163-4.064 2.183-6.5 2 .318-2.3184 1.652-3.6517 4-4 2.89 1.185 5.724 1.185 8.5 0 .881 1.7735 2.047 2.4402 3.5 2-.457.7975-1.124 1.1309-2 1Z"/><path style="opacity:1" fill="#242221" d="M185.5 76.5c2.332.6617 2.999 1.995 2 4-1.615-.654-3.282-1.154-5-1.5 1.442-.3768 2.442-1.2101 3-2.5Z"/><path style="opacity:1" fill="#514e4a" d="M179.5 78.5c1.837.1395 2.17.8061 1 2-.798-.4569-1.131-1.1236-1-2Z"/><path style="opacity:1" fill="#6c6863" d="M57.5 78.5c1.5847.5024 2.0847 1.5024 1.5 3-1.0386-.7438-1.5386-1.7438-1.5-3Z"/><path style="opacity:1" fill="#413f3c" d="M157.5 80.5c4.521-.1738 4.855.4929 1 2-.798-.4569-1.131-1.1236-1-2Z"/><path style="opacity:1" fill="#716d67" d="M217.5 82.5c1.837.1395 2.17.8061 1 2-.798-.4569-1.131-1.1236-1-2Z"/><path style="opacity:1" fill="#262523" d="M-.5 71.5c.66667 1.3333 1.33333 2.6667 2 4-.24923 18.4848-.24923 38.485 0 60l-2 162v-226Z"/><path style="opacity:1" fill="#6a6661" d="M31.5 85.5c1.837.1395 2.1704.8061 1 2-.7975-.4569-1.1309-1.1236-1-2Z"/><path style="opacity:1" fill="#8a857f" d="M220.5 82.5c1.422.2086 2.755.7086 4 1.5-2.522 1.6859-2.189 3.0192 1 4-.556.3826-.889.8826-1 1.5.131.7389-.036 1.4056-.5 2-2.734-.8617-2.901-1.695-.5-2.5-1.333-.6667-2.333-1.6667-3-3 .671-.9862.671-2.1529 0-3.5Z"/><path style="opacity:1" fill="#35322b" d="M435.5 87.5c1.275 2.1084 1.775 4.4417 1.5 7-1.352-2.0938-1.852-4.4272-1.5-7Z"/><path style="opacity:1" fill="#a66855" d="M496.5 99.5c-.08 3.281.587 6.281 2 9 0 .667-.333 1-1 1h-1c-1.083-.039-2.083-.373-3-1-1.393-2.174-1.06-4.007 1-5.5-.994-1.329-1.994-2.662-3-4 .055-4.8548 1.388-9.5215 4-14-1.12-1.5559-2.12-3.0559-3-4.5 1.022-.854 1.855-1.854 2.5-3 .078-2.1565.245-4.1565.5-6 .681 7.8909 1.348 15.7242 2 23.5-.88 1.3561-1.214 2.8561-1 4.5Z"/><path style="opacity:1" fill="#56524b" d="M225.5 90.5c.997-.0299 1.664.4701 2 1.5-.649 1.6895-.649 3.5229 0 5.5-1.25.0774-2.083.744-2.5 2l-1.5-3c2.528-1.0174 2.528-2.1841 0-3.5 1.256-.4169 1.923-1.2502 2-2.5Z"/><path style="opacity:1" fill="#2d2b25" d="M437.5 96.5c2.061 1.2514 2.394 2.9181 1 5-.952-1.5453-1.285-3.212-1-5Z"/><path style="opacity:1" fill="#754a3c" d="M499.5 98.5v10h-1c-1.413-2.719-2.08-5.719-2-9 1.109-.0569 2.109-.3902 3-1Z"/><path style="opacity:1" fill="#403d3a" d="M221.5 104.5c.749 1.031 1.415 2.198 2 3.5-.333.167-.667.333-1 .5-.929-1.189-1.262-2.522-1-4Z"/><path style="opacity:1" fill="#52342a" d="M485.5 102.5c.739-.131 1.406.036 2 .5.042 4.299-.125 8.799-.5 13.5-.192-2.077-.692-4.077-1.5-6-.896 1.006-1.562 1.006-2 0 3.102-1.457 3.602-3.457 1.5-6-.333 1-.667 2-1 3-.64-2.043-.14-3.71 1.5-5Z"/><path style="opacity:1" fill="#472c24" d="M478.5 128.5c-2.254-.624-3.921-1.957-5-4 4.067-2.444 5.067-5.944 3-10.5.009-1.404.509-2.57 1.5-3.5.499 5.991.666 11.991.5 18Z"/><path style="opacity:1" fill="#9e9782" d="M226.5 115.5c1.333 4.333 1.333 8.667 0 13v-3c-1.929.269-3.595-.231-5-1.5 1.399-.595 2.732-.428 4 .5.818-3.246 1.151-6.246 1-9Z"/><path style="opacity:1" fill="#71473a" d="M496.5 109.5h1c.165 3.682-.001 7.348-.5 11-.333-1-.667-2-1-3-.756 2.309-.256 4.309 1.5 6-.124.607-.457.94-1 1-1.028-2.598-2.028-2.598-3 0-.077-1.25-.744-2.083-2-2.5.948-.483 1.948-.649 3-.5.214-1.644-.12-3.144-1-4.5 2.541-1.848 3.541-4.348 3-7.5Z"/><path style="opacity:1" fill="#0f0907" d="M498.5 108.5h1v32h-1c-1.566-4.911-2.233-10.245-2-16 .543-.06.876-.393 1-1-1.756-1.691-2.256-3.691-1.5-6 .333 1 .667 2 1 3 .499-3.652.665-7.318.5-11 .667 0 1-.333 1-1Z"/><path style="opacity:1" fill="#696560" d="M184.5 118.5c1.837.139 2.17.806 1 2-.798-.457-1.131-1.124-1-2Z"/><path style="opacity:1" fill="#6a4236" d="M472.5 121.5c-.366 4.968-.866 4.634-1.5-1-1.237 3.56-1.737 7.227-1.5 11-1.141-3.14-1.308-6.473-.5-10 2.411-5.169 3.578-5.169 3.5 0Z"/><path style="opacity:1" fill="#3b3936" d="M207.5 124.5c1.837.139 2.17.806 1 2-.798-.457-1.131-1.124-1-2Z"/><path style="opacity:1" fill="#403e3b" d="M225.5 131.5v1c-1.127-.622-2.127-1.455-3-2.5 2.006-2.048 3.006-1.548 3 1.5Z"/><path style="opacity:1" fill="#36332b" d="M433.5 117.5c.624.417.957 1.084 1 2-1.87 9.014-3.703 18.014-5.5 27 .196-9.842 1.696-19.509 4.5-29Z"/><path style="opacity:1" fill="#726c5b" d="M230.5 126.5c-.17 1.322.163 2.489 1 3.5-1.312 2.48-2.312 4.98-3 7.5.223-4.002.223-7.835 0-11.5.167-.5.333-1 .5-1.5.278.916.778 1.582 1.5 2Z"/><path style="opacity:1" fill="#48453a" d="M453.5 121.5c1.312 6.908 1.312 13.241 0 19-.511-6.479-.511-12.813 0-19Z"/><path style="opacity:1" fill="#b3705c" d="M472.5 121.5c.904.709 1.237 1.709 1 3 1.079 2.043 2.746 3.376 5 4 .838.342 1.172 1.008 1 2-1.025.397-1.192 1.063-.5 2 1.333.667 2.667 1.333 4 2 .617-.949.451-1.782-.5-2.5.566-.995 1.233-1.828 2-2.5-.285 1.788.048 3.455 1 5-.162-2.131 1.171-3.131 4-3-.333 3 1 4.333 4 4 .393-3.013-.274-5.68-2-8 1.548-.321 2.215-1.321 2-3 .972-2.598 1.972-2.598 3 0-.233 5.755.434 11.089 2 16-1.086.12-1.753.787-2 2 .095 2.369 1.095 4.036 3 5v6c-.722-.418-1.222-1.084-1.5-2-.232 1.237-.732 2.237-1.5 3-.651.591-1.318 1.257-2 2-1.027-1.291-2.027-1.291-3 0 .277-2.948-.056-5.781-1-8.5 2.95-1.878 3.617-4.378 2-7.5 2.248-1.725 1.748-3.058-1.5-4-1.098 6.457-1.931 12.957-2.5 19.5.729 1.987.396 3.987-1 6 .444 1.762.944 1.595 1.5-.5.483.948.649 1.948.5 3-1.333.333-2.667.667-4 1 .453.958 1.119 1.792 2 2.5-1.634.494-3.301.66-5 .5-.111-.617-.444-1.117-1-1.5 1.256-.417 1.923-1.25 2-2.5.157-1.373-.01-2.707-.5-4-.654 1.196-1.154 1.196-1.5 0 2.382-2.555 2.382-5.222 0-8 1.586-1.673 2.253-3.673 2-6 .802 1.452 1.302 3.118 1.5 5 .232-4.055.732-8.055 1.5-12-.379-1.713-1.379-2.713-3-3-.996.086-1.829-.248-2.5-1-.446 2.843-.946 5.676-1.5 8.5 1.149 5.495 1.149 10.995 0 16.5-5.29 4.054-6.957 9.387-5 16l2 2c1.625-3.44.958-6.273-2-8.5 1.939-.908 2.939-2.408 3-4.5h3v5c-.303 3.088 1.03 4.754 4 5v4h-2c-1.597.59-2.931 1.59-4 3-1.342-2.821-2.008-2.654-2 .5.167.833.333 1.667.5 2.5 1.866-1.027 3.7-2.027 5.5-3 .16 1.699-.006 3.366-.5 5-1.292-1.291-2.458-1.291-3.5 0-3.657.38-4.657-.953-3-4-.219-1.438-.719-2.771-1.5-4-1 1.333-2 1.333-3 0-.103 2.819-.603 4.819-1.5 6-.302-2.559.032-4.893 1-7 1.526-.992 2.193-2.492 2-4.5-.875-4.024-.875-7.857 0-11.5-.333-.667-.667-1.333-1-2-.67 1.791-1.337 3.458-2 5v-7c1.624-1.651 2.957-3.651 4-6 1.549 2.27 2.883 1.937 4-1-.167-.667-.333-1.333-.5-2-.654 1.196-1.154 1.196-1.5 0 1.093-3.608 1.26-7.275.5-11-1.092 2.544-1.759 5.211-2 8-.419-4.352-1.086-4.685-2-1-.377-1.442-1.21-2.442-2.5-3-.079-1.43.254-2.764 1-4-.333-1-1-1.667-2-2-.798 1.578-1.298 3.244-1.5 5l-1-1c.048-2.426-.119-4.759-.5-7l1-1c1.904 3.944 2.904 3.61 3-1-.237-3.773.263-7.44 1.5-11 .634 5.634 1.134 5.968 1.5 1Z"/><path style="opacity:1" fill="#57362d" d="M484.5 129.5c-.767.672-1.434 1.505-2 2.5.951.718 1.117 1.551.5 2.5-1.333-.667-2.667-1.333-4-2-.692-.937-.525-1.603.5-2 .617.111 1.117.444 1.5 1 1.252-1.501 2.252-3.168 3-5 .483.948.649 1.948.5 3Z"/><path style="opacity:1" fill="#54352b" d="M491.5 127.5c-.658.898-1.324 1.898-2 3-2.579-1.388-2.579-2.888 0-4.5-.971-1.204-1.971-1.704-3-1.5 1.189-.929 2.522-1.262 4-1-.067 1.459.266 2.792 1 4Z"/><path style="opacity:1" fill="#968e77" d="M454.5 117.5c.648 1.586 1.148 3.253 1.5 5a1561.807 1561.807 0 0 1 1.5 46c-1.629-1.56-2.796-1.227-3.5 1-.499-2.522-.332-5.022.5-7.5.007-1.812-.66-3.312-2-4.5-.002-2.037.332-4.037 1-6 1.3-2.524 1.3-5.191 0-8-.798.457-1.131 1.124-1 2-1.178-1.838-.845-3.505 1-5 1.312-5.759 1.312-12.092 0-19-.268-1.599.066-2.932 1-4Z"/><path style="opacity:1" fill="#644035" d="M483.5 136.5c1.621.287 2.621 1.287 3 3-.768 3.945-1.268 7.945-1.5 12-.198-1.882-.698-3.548-1.5-5v-10Z"/><path style="opacity:1" fill="#0f0f0e" d="M209.5 142.5c1.068-.934 2.401-1.268 4-1-.17 1.322.163 2.489 1 3.5l-1.5 1.5c-.49-1.293-.657-2.627-.5-4h-3Z"/><path style="opacity:1" fill="#4b3028" d="M498.5 140.5h1v7c-1.905-.964-2.905-2.631-3-5 .247-1.213.914-1.88 2-2Z"/><path style="opacity:1" fill="#1c1b17" d="M453.5 151.5c-.841-1.879-1.175-3.879-1-6-.131-.876.202-1.543 1-2 1.3 2.809 1.3 5.476 0 8Z"/><path style="opacity:1" fill="#1a110e" d="M491.5 156.5c-.156 2.566.178 5.066 1 7.5-.676 1.683-1.676 1.85-3 .5.149-1.052-.017-2.052-.5-3-.556 2.095-1.056 2.262-1.5.5 1.396-2.013 1.729-4.013 1-6 .569-6.543 1.402-13.043 2.5-19.5 3.248.942 3.748 2.275 1.5 4 1.617 3.122.95 5.622-2 7.5.944 2.719 1.277 5.552 1 8.5Z"/><path style="opacity:1" fill="#160e0b" d="M483.5 136.5v10c.253 2.327-.414 4.327-2 6 2.382 2.778 2.382 5.445 0 8 .346 1.196.846 1.196 1.5 0 .49 1.293.657 2.627.5 4-.617.111-1.117.444-1.5 1-1.438-1.4-2.271-3.067-2.5-5 1.149-5.505 1.149-11.005 0-16.5.554-2.824 1.054-5.657 1.5-8.5.671.752 1.504 1.086 2.5 1Z"/><path style="opacity:1" fill="#432b24" d="M469.5 158.5c.137-5.069.137-10.402 0-16 1.29.558 2.123 1.558 2.5 3 .914-3.685 1.581-3.352 2 1 .241-2.789.908-5.456 2-8 .76 3.725.593 7.392-.5 11 .346 1.196.846 1.196 1.5 0 .167.667.333 1.333.5 2-1.117 2.937-2.451 3.27-4 1-1.043 2.349-2.376 4.349-4 6Z"/><path style="opacity:1" fill="#504d4a" d="M205.5 153.5c1.276.886 1.276 1.886 0 3-1.062-.925-1.062-1.925 0-3Z"/><path style="opacity:1" fill="#261915" d="M499.5 153.5v12c-1.106-.649-2.106-.983-3-1 .474-3.245.474-6.579 0-10 .768-.763 1.268-1.763 1.5-3 .278.916.778 1.582 1.5 2Z"/><path style="opacity:1" fill="#2b1c17" d="M485.5 165.5c-1.113-1.446-1.28-3.113-.5-5 1.788 1.523 1.955 3.19.5 5Z"/><path style="opacity:1" fill="#22201c" d="M431.5 145.5c1.161 15.828 1.328 31.828.5 48-1.032-9.639-1.699-19.306-2-29-1.131 1.104-1.965.771-2.5-1 .774-1.211 1.607-1.211 2.5 0 1.162-5.945 1.662-11.945 1.5-18Z"/><path style="opacity:1" fill="#603c31" d="M465.5 163.5c1.175-.219 2.175.114 3 1-.508 3.803-1.342 7.47-2.5 11-.499-3.986-.666-7.986-.5-12Z"/><path style="opacity:1" fill="#482e25" d="M470.5 178.5c-.914-4.167-1.247-8.5-1-13 .663-1.542 1.33-3.209 2-5 .333.667.667 1.333 1 2-.875 3.643-.875 7.476 0 11.5.193 2.008-.474 3.508-2 4.5Z"/><path style="opacity:1" fill="#484642" d="M218.5 172.5c1.585.502 2.085 1.502 1.5 3-1.039-.744-1.539-1.744-1.5-3Z"/><path style="opacity:1" fill="#72483b" d="M479.5 160.5c.229 1.933 1.062 3.6 2.5 5 .383-.556.883-.889 1.5-1-.077 1.25-.744 2.083-2 2.5.556.383.889.883 1 1.5-.667.333-1.333.667-2 1v-4h-3c-.061 2.092-1.061 3.592-3 4.5 2.958 2.227 3.625 5.06 2 8.5l-2-2c-1.957-6.613-.29-11.946 5-16Z"/><path style="opacity:1" fill="#36231d" d="M480.5 170.5c3.262-.201 5.262 1.299 6 4.5-.025 1.876-.691 3.376-2 4.5v-4c-2.97-.246-4.303-1.912-4-5Z"/><path style="opacity:1" fill="#171716" d="M1.5 135.5c.31085 54.022.97751 108.022 2 162-.04272.916-.37605 1.583-1 2h-3v-2l2-162Z"/><path style="opacity:1" fill="#c47b64" d="M496.5 154.5c.474 3.421.474 6.755 0 10 .894.017 1.894.351 3 1v12c-.663-1.542-1.33-3.209-2-5-.333.167-.667.333-1 .5.333 1 .667 2 1 3-.363 4.892-1.363 9.558-3 14 1.146.645 2.146 1.478 3 2.5.682-.743 1.349-1.409 2-2v40c-.768-.763-1.268-1.763-1.5-3-.399.228-.565.562-.5 1-.722 1.051-1.722 1.718-3 2 .009-1.808-.491-3.475-1.5-5-.29 1.544-.956 2.877-2 4-.336 2.975-.169 5.642.5 8-.525.692-1.192 1.192-2 1.5.228.399.562.565 1 .5-.165 3.018.002 6.018.5 9 .383-.556.883-.889 1.5-1-2.301 1.438-4.135 3.438-5.5 6-.52 1.789-.187 3.456 1 5 .232-1.237.732-2.237 1.5-3-.067 1.901.267 3.734 1 5.5-.336 1.03-1.003 1.53-2 1.5-1.739-.934-3.405-.934-5 0-1.205 1.495-1.205 2.828 0 4-.209 1.422-.709 2.755-1.5 4-.36-1.921-1.194-3.588-2.5-5-1.282 2.674-.949 5.174 1 7.5-2.827 2.157-2.66 3.99.5 5.5.191-2.208.691-4.208 1.5-6 .904.709 1.237 1.709 1 3-.392 1.679-.892 3.346-1.5 5l-1-1c-.611 4.996-1.111 9.996-1.5 15v8c-2.104.299-4.104-.034-6-1 .774-1.211 1.607-1.211 2.5 0 .167-.5.333-1 .5-1.5-.792-3.572-1.125-7.072-1-10.5-.586-.209-1.086-.543-1.5-1-.667 2.667-1.333 2.667-2 0-1.009 1.525-1.509 3.192-1.5 5-.522-1.719-1.522-3.052-3-4-.914-3.228-1.247-6.561-1-10v-2c.087-3.098-.413-3.432-1.5-1-1.405-1.691-2.572-3.524-3.5-5.5 3.312-5.496 3.646-11.163 1-17 3.088-4.141 3.421-8.641 1-13.5 1.538-5.766 2.538-11.433 3-17 1.058 1.1 1.892 2.434 2.5 4 .837-1.851 1.671-3.684 2.5-5.5-.496-1.996-1.496-3.663-3-5 .556-.383.889-.883 1-1.5 1.508-1.671 1.841-3.504 1-5.5.603-2.071 1.936-3.238 4-3.5 1.767 1.15 2.933.483 3.5-2 1.935 2.259 4.435 3.259 7.5 3 1.445-7.569.612-8.236-2.5-2-.333-1.667-.667-3.333-1-5-.333 1-.667 2-1 3-1.104-.894-2.27-1.894-3.5-3 .946-1.431 2.112-2.764 3.5-4l1 1c.495-1.973.662-3.973.5-6h-6c-.543-.06-.876-.393-1-1 1.27-.788 2.27-1.788 3-3 1.042-1.291 2.208-1.291 3.5 0 .494-1.634.66-3.301.5-5v-3h2c1.309-1.124 1.975-2.624 2-4.5-.738-3.201-2.738-4.701-6-4.5v-1c.667-.333 1.333-.667 2-1 1.699.16 3.366-.006 5-.5-.881-.708-1.547-1.542-2-2.5 1.333-.333 2.667-.667 4-1 1.324 1.35 2.324 1.183 3-.5-.822-2.434-1.156-4.934-1-7.5.973-1.291 1.973-1.291 3 0 .682-.743 1.349-1.409 2-2Z"/><path style="opacity:1" fill="#1d1410" d="M495.5 180.5c-1.53.567-3.03 1.233-4.5 2-.399-.228-.565-.562-.5-1-2.277-3.117-2.61-6.451-1-10h3c1.147 2.91 2.147 5.91 3 9Z"/><path style="opacity:1" fill="#291a16" d="M493.5 161.5c1.976.927 2.309 2.26 1 4-.929-1.189-1.262-2.522-1-4Z"/><path style="opacity:1" fill="#73483b" d="M468.5 185.5c-.333.667-.667 1.333-1 2-1.729-1.453-2.729-3.453-3-6 .667-.333 1.333-.667 2-1-.525-.692-1.192-1.192-2-1.5.932-2.651 2.265-2.985 4-1-.74 1.785-1.407 3.618-2 5.5.355 1.022 1.022 1.689 2 2Z"/><path style="opacity:1" fill="#54352b" d="M495.5 180.5c-.765 2.596-1.099 5.263-1 8-1.052-.149-2.052.017-3 .5 1.154.914.987 1.747-.5 2.5-.72-1.612-.554-3.112.5-4.5-1.114-1.449-2.114-2.783-3-4 .544-.717 1.211-1.217 2-1.5-.065.438.101.772.5 1 1.47-.767 2.97-1.433 4.5-2Z"/><path style="opacity:1" fill="#3c2720" d="M482.5 179.5v3c-1.8.973-3.634 1.973-5.5 3-.167-.833-.333-1.667-.5-2.5-.008-3.154.658-3.321 2-.5 1.069-1.41 2.403-2.41 4-3Z"/><path style="opacity:1" fill="#2c1d18" d="M478.5 187.5c-.73 1.212-1.73 2.212-3 3 .124.607.457.94 1 1 1.159 4.618 1.159 5.618 0 3h-4c-.198-5.064-.865-4.897-2 .5.194 3.354.527 6.688 1 10l-1.5 1.5c-.498 2.982-.665 5.982-.5 9-.111.617-.444 1.117-1 1.5 1.504 1.337 2.504 3.004 3 5-.829 1.816-1.663 3.649-2.5 5.5-.608-1.566-1.442-2.9-2.5-4-1.148-.664-2.481-.831-4-.5-.752-.671-1.086-1.504-1-2.5 1.701-.466 3.201-.466 4.5 0 2.208-5.134 1.542-5.801-2-2-.384-1.697-.218-3.363.5-5 .789-.283 1.456-.783 2-1.5-1.004-5.642-1.337-11.475-1-17.5.297-2.512.963-4.845 2-7 .333-.667.667-1.333 1-2h1c.897-1.181 1.397-3.181 1.5-6 1 1.333 2 1.333 3 0 .781 1.229 1.281 2.562 1.5 4-1.657 3.047-.657 4.38 3 4Z"/><path style="opacity:1" fill="#4c3028" d="M499.5 177.5v13c-.651.591-1.318 1.257-2 2-.854-1.022-1.854-1.855-3-2.5 1.637-4.442 2.637-9.108 3-14-.333-1-.667-2-1-3 .333-.167.667-.333 1-.5.67 1.791 1.337 3.458 2 5Z"/><path style="opacity:1" fill="#b9b094" d="M226.5 130.5c1.333 53.333 1.333 106.667 0 160-.151-41.307-.151-82.474 0-123.5-.167-7.167-.333-14.333-.5-21.5-.654 1.196-1.154 1.196-1.5 0 1.194-2.123 1.86-4.457 2-7-.005-2.196-.338-4.196-1-6v-1c.667 0 1-.333 1-1Z"/><path style="opacity:1" fill="#65625d" d="M221.5 190.5c1.885 2.295 2.385 4.962 1.5 8-1.375-2.437-1.875-5.103-1.5-8Z"/><path style="opacity:1" fill="#38231d" d="M495.5 193.5c1.175-.219 2.175.114 3 1-.515 1.725-1.182 3.392-2 5-.091-1.723-.425-3.723-1-6Z"/><path style="opacity:1" fill="#4b4845" d="M213.5 198.5c1.221-.965 2.554-.798 4 .5-1.428.579-2.762.412-4-.5Z"/><path style="opacity:1" fill="#21201f" d="M120.5 198.5c5.579 3.032 5.246 4.032-1 3 .627-.917.961-1.917 1-3Z"/><path style="opacity:1" fill="#8b5747" d="M476.5 191.5h6c.162 2.027-.005 4.027-.5 6l-1-1c-1.388 1.236-2.554 2.569-3.5 4-2.465-.944-4.132.056-5 3 .167.667.333 1.333.5 2 1.043-3.726 1.543-3.393 1.5 1-2.064.262-3.397 1.429-4 3.5.841 1.996.508 3.829-1 5.5-.165-3.018.002-6.018.5-9l1.5-1.5c-.473-3.312-.806-6.646-1-10 1.135-5.397 1.802-5.564 2-.5h4c1.159 2.618 1.159 1.618 0-3Z"/><path style="opacity:1" fill="#3a261f" d="M477.5 200.5c1.23 1.106 2.396 2.106 3.5 3 .333-1 .667-2 1-3 .333 1.667.667 3.333 1 5 3.112-6.236 3.945-5.569 2.5 2-3.065.259-5.565-.741-7.5-3-.567 2.483-1.733 3.15-3.5 2 .043-4.393-.457-4.726-1.5-1-.167-.667-.333-1.333-.5-2 .868-2.944 2.535-3.944 5-3Z"/><path style="opacity:1" fill="#3c261f" d="M474.5 209.5c.06-.543.393-.876 1-1 .792 1.965 1.459 3.965 2 6-.333 1-1 1.667-2 2-.765-2.564-1.098-4.897-1-7Z"/><path style="opacity:1" fill="#291b17" d="M484.5 210.5c1.965.448 2.298 1.448 1 3-.886-.825-1.219-1.825-1-3Z"/><path style="opacity:1" fill="#6b4337" d="M490.5 207.5c.491 1.393 1.991 2.393 4.5 3l1-1c.827 1.162 1.66 2.329 2.5 3.5-.602 1.563-1.435 1.396-2.5-.5-1.751.674-3.417 1.007-5 1-1.332-2.05-1.498-4.05-.5-6Z"/><path style="opacity:1" fill="#503329" d="M479.5 207.5c4.219 2.041 4.886 4.874 2 8.5-.948.483-1.948.649-3 .5-.236-3.109.097-6.109 1-9Z"/><path style="opacity:1" fill="#70463a" d="M464.5 213.5c-.718 1.637-.884 3.303-.5 5 3.542-3.801 4.208-3.134 2 2-1.299-.466-2.799-.466-4.5 0v-11h3v4Z"/><path style="opacity:1" fill="#5f3c31" d="M494.5 230.5c1.629 1.696 1.296 2.696-1 3-.139-1.837-.806-2.17-2-1 1.691 2.845 1.357 5.179-1 7-.438.065-.772-.101-1-.5.808-.308 1.475-.808 2-1.5-.669-2.358-.836-5.025-.5-8 1.044-1.123 1.71-2.456 2-4 1.009 1.525 1.509 3.192 1.5 5Z"/><path style="opacity:1" fill="#160e0b" d="M499.5 230.5v5c-.768.763-1.268 1.763-1.5 3-.498-3.317-.665-6.65-.5-10-.065-.438.101-.772.5-1 .232 1.237.732 2.237 1.5 3Z"/><path style="opacity:1" fill="#656050" d="M228.5 219.5c.716 2.056 1.383 4.223 2 6.5-.979 6.744-1.312 13.578-1 20.5-.993-8.818-1.327-17.818-1-27Z"/><path style="opacity:1" fill="#736d5c" d="M273.5 299.5c.131.739-.036 1.406-.5 2-1.113-1.211-2.28-1.211-3.5 0l-2-2c-2.261 2.594-4.428 2.594-6.5 0-.71 1.473-1.876 2.14-3.5 2-.111-.617-.444-1.117-1-1.5 1.252-2.041 1.919-4.375 2-7-1.001-12.502-.834-25.002.5-37.5l1 1c.167-.833.333-1.667.5-2.5-.351-3.104-.851-2.937-1.5.5-.309-1.266-.809-2.433-1.5-3.5-1.267-6.466-1.267-12.966 0-19.5-.631-3.534-1.298-7.034-2-10.5.808-.308 1.475-.808 2-1.5.09-6.18.09-12.347 0-18.5.411-8.281 1.578-16.448 3.5-24.5.187 7.301-.647 14.468-2.5 21.5.421 4.051.755 8.051 1 12 .124 2.59-.542 4.923-2 7 .916 2.57 1.582 5.237 2 8-1.964 8.383-1.798 16.883.5 25.5.333-3.333.667-6.667 1-10 .556-2.095 1.056-2.262 1.5-.5-.901 14.027-2.234 27.027-4 39 .234 4.404.901 8.737 2 13-.733 1.766-1.067 3.599-1 5.5h3c-.157-1.373.01-2.707.5-4 .723 4.418 3.057 5.751 7 4 1.302.585 2.469 1.251 3.5 2Z"/><path style="opacity:1" fill="#1b120f" d="M493.5 233.5c1.744 3.442 2.411 6.942 2 10.5-.857 1.223-1.857 2.389-3 3.5-.617.111-1.117.444-1.5 1-.498-2.982-.665-5.982-.5-9 2.357-1.821 2.691-4.155 1-7 1.194-1.17 1.861-.837 2 1Z"/><path style="opacity:1" fill="#b06e5a" d="M497.5 228.5c-.165 3.35.002 6.683.5 10 .232-1.237.732-2.237 1.5-3v50c-2.422 1.192-3.422 3.192-3 6-.064 1.889.436 3.556 1.5 5 .21-1.558.71-2.891 1.5-4v10h-8c.948-2.176 1.615-4.676 2-7.5-.167-1.5-.333-3-.5-4.5-.977 1.274-1.811 1.274-2.5 0-.316-2.201.184-4.534 1.5-7 .333 2 .667 4 1 6 1.61-2.439 2.444-5.106 2.5-8-2.027-.162-4.027.005-6 .5.237 2.288.237 4.788 0 7.5-.289 3.606.044 7.106 1 10.5-.626.75-1.126 1.584-1.5 2.5-1.617-1.036-1.784-2.203-.5-3.5-1.563-.759-2.563-1.926-3-3.5.321-1.548 1.321-2.215 3-2 .744-3.45-.59-5.116-4-5 .157-1.373-.01-2.707-.5-4-.186 2.4-.686 4.734-1.5 7-.333-.167-.667-.333-1-.5.086-3.113.419-6.28 1-9.5 2.87-.622 5.704-1.289 8.5-2 .25-3.638.417-7.138.5-10.5-1.075-2.683-2.075-2.849-3-.5 1.17 3.349 1.17 6.682 0 10-1.041-2.491-1.874-2.491-2.5 0-.236-1.619-1.069-2.619-2.5-3 .237-1.291-.096-2.291-1-3 .929-.815 1.929-1.648 3-2.5-.749-1.734-1.249-3.567-1.5-5.5-.464.594-.631 1.261-.5 2-1.205-1.172-1.205-2.505 0-4 1.595-.934 3.261-.934 5 0 .206 2.049 1.039 2.383 2.5 1 .743-1.941.576-3.774-.5-5.5 3.861-1.657 3.861-3.157 0-4.5-.798.457-1.131 1.124-1 2-.768.763-1.268 1.763-1.5 3-1.187-1.544-1.52-3.211-1-5 1.365-2.562 3.199-4.562 5.5-6 1.143-1.111 2.143-2.277 3-3.5.411-3.558-.256-7.058-2-10.5 2.296-.304 2.629-1.304 1-3 1.278-.282 2.278-.949 3-2Z"/><path style="opacity:1" fill="#282424" d="M421.5 301.5c1.333.667 2.667 1.333 4 2-1.052-.149-2.052.017-3 .5 1.776 3.837.943 7.003-2.5 9.5-1.021 2.605-1.855 5.272-2.5 8 2.167 5 4.333 10 6.5 15 .495 3.031.329 6.031-.5 9-3.102.346-5.935-.321-8.5-2-.37-13.011-1.537-12.844-3.5.5.249 3.592 2.082 6.092 5.5 7.5.798 1.759.631 3.426-.5 5l-2-2c-2.391 4.079-4.225 3.746-5.5-1-1.512.757-2.846 1.757-4 3-2.015-1.978-1.848-3.812.5-5.5-1.109-1.813-.442-2.646 2-2.5.239-4.342.573-8.676 1-13-2.091.182-4.091-.152-6-1-.333.667-.667 1.333-1 2-.703 6.98-.87 13.98-.5 21l-1 1c-.949-3.878-2.115-3.878-3.5 0-1.467-.223-2.967-.556-4.5-1 .389-3.232.222-6.398-.5-9.5 1.284-.684 2.451-.517 3.5.5 1.044-1.123 1.71-2.456 2-4 .667-5 .667-10 0-15-3.975-6.963-7.475-14.13-10.5-21.5 1.921-1.241 2.254-2.741 1-4.5-2.186 5.082-3.686 10.415-4.5 16-1.814 3.562-3.48 7.229-5 11-2.048.598-3.215 1.931-3.5 4 1.342 3.89 2.175 7.89 2.5 12 3.308 1.96 6.641 3.96 10 6 .507 2.335-.16 4.335-2 6-.333-.667-.667-1.333-1-2-1.724 3.23-3.724 3.564-6 1-2.071 2.916-3.405 2.582-4-1-.368 1.41-1.201 2.41-2.5 3-1.124-1.869-1.957-3.869-2.5-6-1.351 8.664-3.018 8.998-5 1-.412 2.497-1.578 4.497-3.5 6-2.122-3.915-2.788-7.915-2-12-1.43-.079-2.764.254-4 1-1.083-.865-1.249-1.865-.5-3 2.287-1.044 4.453-2.044 6.5-3 .162-2.027-.005-4.027-.5-6-2.167-2.33-3.834-4.997-5-8-1.531 6.364-5.364 10.698-11.5 13-5.206-2.634-10.539-4.967-16-7 .967-2.29 2.3-4.29 4-6 4.961-5.819 8.961-12.319 12-19.5-2.948-1.01-3.614-2.843-2-5.5-17.321-1-34.654-1.333-52-1 17.667-.667 35.333-1.333 53-2 1.291.237 2.291-.096 3-1 4.191-2.928 8.191-6.095 12-9.5.27-2.63-.23-5.13-1.5-7.5l-1 1c-.202-1.756-.702-3.422-1.5-5-3.996-3.984-6.996-8.65-9-14 .333-.667.667-1.333 1-2-.649-6.531-1.315-13.031-2-19.5.828-.915 1.828-1.581 3-2-3.63-.271-4.63-1.938-3-5 2.288-.822 4.622-1.489 7-2-.522-.561-.855-1.228-1-2 1.081-1.371 1.915-2.871 2.5-4.5 1.399-.727 2.899-1.227 4.5-1.5-2.937-3.291-2.27-5.458 2-6.5 3.478 1.454 7.145 2.454 11 3 3.458-.597 6.791-1.597 10-3 3.41 1.082 3.91 3.082 1.5 6-1.685 1.517-3.185 3.184-4.5 5 1.096 2.013.763 3.846-1 5.5 3.889 6.277 7.389 12.777 10.5 19.5 1.474 4.751.14 8.418-4 11-3.463-1.292-6.963-2.459-10.5-3.5-1.372-1.242-2.372-2.742-3-4.5-.833-.333-1.667-.667-2.5-1-2.663 1.411-5.496 2.411-8.5 3 .023 2.427.523 4.76 1.5 7 1.011.837 2.178 1.17 3.5 1 .079 1.43-.254 2.764-1 4 3.096 3.316 6.43 7.149 10 11.5 1.049.492 2.049.326 3-.5 1.247 1.506 1.247 3.006 0 4.5 2.038 1.236 3.205 3.069 3.5 5.5 1.399.727 2.899 1.227 4.5 1.5 6.871 7.781 12.204 6.615 16-3.5.013-7.941-.487-15.941-1.5-24-.885-2.5-2.052-4.833-3.5-7-5.82-2.454-6.487-5.954-2-10.5-1.188-3.732-2.855-7.232-5-10.5 1.226-3.452 2.726-6.785 4.5-10l1 1c4.794-5.681 10.127-6.014 16-1 1.011-.837 2.178-1.17 3.5-1 .322 2.222-.345 4.056-2 5.5 2.898 1.693 3.564 4.026 2 7 2.495 2.661 5.161 5.161 8 7.5.947 1.559 1.613 3.226 2 5-3.493 3.683-5.993 8.017-7.5 13-2.441 2.469-5.274 4.302-8.5 5.5 1.421 6.933 3.255 13.766 5.5 20.5 2.901 3.525 6.401 6.192 10.5 8Z"/><path style="opacity:1" fill="#c1b89a" d="M347.5 244.5c.749 1.031 1.415 2.198 2 3.5-.333.167-.667.333-1 .5-.929-1.189-1.262-2.522-1-4Z"/><path style="opacity:1" fill="#aea58c" d="M377.5 227.5c-3.04 1.234-4.373 3.568-4 7-3.599.238-3.933-.762-1-3-1.396-2.291-3.229-2.625-5.5-1-1.893-.696-3.726-1.53-5.5-2.5-1.017-1.049-1.184-2.216-.5-3.5 4.852 4.049 10.352 5.049 16.5 3Z"/><path style="opacity:1" fill="#beb498" d="M377.5 227.5c.375-3.407-.625-3.907-3-1.5-2.667.667-5.333.667-8 0 3.617-.353 7.117-1.186 10.5-2.5 2.682 1.392 2.848 2.725.5 4Z"/><path style="opacity:1" fill="#c1b89a" d="M356.5 222.5h3c-.146 4.921-1.146 4.921-3 0Z"/><path style="opacity:1" fill="#978f7a" d="M345.5 250.5c.617.111 1.117.444 1.5 1 .251 1.933.751 3.766 1.5 5.5-.333.167-.667.333-1 .5-1.135-2.207-1.801-4.54-2-7Z"/><path style="opacity:1" fill="#1f1511" d="M488.5 262.5c.997.03 1.664-.47 2-1.5-.733-1.766-1.067-3.599-1-5.5-.131-.876.202-1.543 1-2 3.861 1.343 3.861 2.843 0 4.5 1.076 1.726 1.243 3.559.5 5.5-1.461 1.383-2.294 1.049-2.5-1Z"/><path style="opacity:1" fill="#2e2c25" d="M230.5 250.5c.617.111 1.117.444 1.5 1 .827 4.041.66 8.041-.5 12-.567-4.374-.9-8.707-1-13Z"/><path style="opacity:1" fill="#191815" d="M449.5 264.5c1.221-.965 2.554-.798 4 .5 1.231 1.183 1.231 2.349 0 3.5-1.34-1.367-2.673-2.7-4-4Z"/><path style="opacity:1" fill="#4a2e26" d="M475.5 265.5c1.086.12 1.753.787 2 2-.333.667-.667 1.333-1 2-.929-1.189-1.262-2.522-1-4Z"/><path style="opacity:1" fill="#7b5243" d="M457.5 261.5c1.333 4.333 1.333 8.667 0 13-.23-4.183-.23-8.516 0-13Z"/><path style="opacity:1" fill="#70473a" d="M482.5 272.5c-.809 1.792-1.309 3.792-1.5 6-3.16-1.51-3.327-3.343-.5-5.5-1.949-2.326-2.282-4.826-1-7.5 1.306 1.412 2.14 3.079 2.5 5 .791-1.245 1.291-2.578 1.5-4-.131-.739.036-1.406.5-2 .251 1.933.751 3.766 1.5 5.5-1.071.852-2.071 1.685-3 2.5Z"/><path style="opacity:1" fill="#694236" d="M470.5 278.5c.617.111 1.117.444 1.5 1 .818 2.727.652 5.394-.5 8-.984-2.928-1.317-5.928-1-9Z"/><path style="opacity:1" fill="#4a2f27" d="M490.5 290.5c0-.667-.333-1-1-1 .237-2.712.237-5.212 0-7.5 1.973-.495 3.973-.662 6-.5-.056 2.894-.89 5.561-2.5 8-.333-2-.667-4-1-6-1.316 2.466-1.816 4.799-1.5 7Z"/><path style="opacity:1" fill="#42403c" d="M7.5 285.5c1.27329.577 1.27329 1.243 0 2-.96295-.47-.96295-1.137 0-2Z"/><path style="opacity:1" fill="#3f2821" d="M466.5 279.5c-.247 3.439.086 6.772 1 10-1.235.221-2.235.888-3 2-.333-.833-.667-1.667-1-2.5 1.132-3.063 1.132-6.063 0-9 .948-.483 1.948-.649 3-.5Z"/><path style="opacity:1" fill="#3c2620" d="M485.5 295.5c-.973-1.291-1.973-1.291-3 0-.751-.876-1.251-1.876-1.5-3-.278.916-.778 1.582-1.5 2 .389-5.004.889-10.004 1.5-15l1 1c.608-1.654 1.108-3.321 1.5-5 1.431.381 2.264 1.381 2.5 3 .626-2.491 1.459-2.491 2.5 0 1.17-3.318 1.17-6.651 0-10 .925-2.349 1.925-2.183 3 .5-.083 3.362-.25 6.862-.5 10.5-2.796.711-5.63 1.378-8.5 2-.581 3.22-.914 6.387-1 9.5.333.167.667.333 1 .5.814-2.266 1.314-4.6 1.5-7 .49 1.293.657 2.627.5 4 3.41-.116 4.744 1.55 4 5-1.679-.215-2.679.452-3 2Z"/><path style="opacity:1" fill="#746e5d" d="M285.5 286.5h3c.053 2.561-.947 4.561-3 6 1.247-1.611 1.247-3.611 0-6Z"/><path style="opacity:1" fill="#3f2821" d="M499.5 285.5v7c-.79 1.109-1.29 2.442-1.5 4-1.064-1.444-1.564-3.111-1.5-5-.422-2.808.578-4.808 3-6Z"/><path style="opacity:1" fill="#a06452" d="M466.5 277.5v2c-1.052-.149-2.052.017-3 .5 1.132 2.937 1.132 5.937 0 9 .333.833.667 1.667 1 2.5.765-1.112 1.765-1.779 3-2 1.478.948 2.478 2.281 3 4-.256 2.292.077 4.459 1 6.5-.547.925-1.213 1.758-2 2.5-.825-3.622-1.325-7.289-1.5-11-.192 2.077-.692 4.077-1.5 6-1-.667-2-1.333-3-2-.996-5.963-1.329-11.963-1-18h4Z"/><path style="opacity:1" fill="#181716" d="M111.5 299.5h-7c1.184-2.347 2.851-4.347 5-6 1.172.419 2.172 1.085 3 2-.26 1.405-.593 2.738-1 4Z"/><path style="opacity:1" fill="#55524e" d="M216.5 295.5c.739-.131 1.406.036 2 .5-1.5.833-2.667 2-3.5 3.5-.484-1.693.016-3.027 1.5-4Z"/><path style="opacity:1" fill="#565145" d="M237.5 296.5c-2.152 2.312-4.152 1.978-6-1 2.049-.206 2.383-1.039 1-2.5 2.503-.874 4.503-.207 6 2-1.585.085-2.918.251-4 .5.825.886 1.825 1.219 3 1Z"/><path style="opacity:1" fill="#a19880" d="M356.5 297.5c1.844.704 2.344 2.037 1.5 4-2.372-.817-2.872-2.15-1.5-4Z"/><path style="opacity:1" fill="#928b75" d="M316.5 300.5c-9 1.333-18 1.333-27 0 2.081-1.123 4.247-2.123 6.5-3 1.261.259 2.261.926 3 2 4.968-1.67 9.968-2.337 15-2 .75.626 1.584 1.126 2.5 1.5-5.294.818-5.294 1.318 0 1.5Z"/><path style="opacity:1" fill="#b6ac92" d="M-.5 300.5v-1h3c34 1.333 68 1.333 102 0h7c37.333 1.333 74.667 1.333 112 0 1.478-.262 2.811.071 4 1-67.663 1-135.33 1.333-203 1-8.3878.273-16.72115-.06-25-1Z"/><path style="opacity:1" fill="#8f8872" d="M283.5 297.5c.528 1.221 1.195 2.387 2 3.5-2.667.667-5.333.667-8 0-.556-.383-.889-.883-1-1.5.689-1.274 1.523-1.274 2.5 0-.263-1.451-.096-2.784.5-4 1.299.59 2.132 1.59 2.5 3 .383-.556.883-.889 1.5-1Z"/><path style="opacity:1" fill="#9a927b" d="M345.5 300.5c-.709.904-1.709 1.237-3 1-8.517.326-16.85-.007-25-1-.03-.997.47-1.664 1.5-2 1.762.444 1.595.944-.5 1.5 2.667.667 5.333.667 8 0-1.333-.333-2.667-.667-4-1 2-.667 4-1.333 6-2-.837-1.011-1.17-2.178-1-3.5h3c-.354 2.041-.354 3.874 0 5.5-.667.333-1.333.667-2 1 1.333.667 2.667.667 4 0l-1-1c1.798-1.505 3.632-1.672 5.5-.5-.077-1.238.089-2.238.5-3 .744 1.491 1.41 2.991 2 4.5 2.04-.614 4.04-.448 6 .5Z"/><path style="opacity:1" fill="#b8bbbc" d="M224.5 303.5c-1.487 5.62-3.487 10.953-6 16h-158c3.5248-1.58 3.8581-3.746 1-6.5-1.4961-.507-2.6627-.007-3.5 1.5-2.9472-3.16-6.6139-4.827-11-5-4.1083 1.912-7.775 3.912-11 6-1.5473 3.808-3.3807 7.475-5.5 11 2.9957 4.492 5.329 9.325 7 14.5-2.9887 2.483-4.3221 5.65-4 9.5h-2c-4.3332-9.818-9.3332-19.318-15-28.5 2.0181-2.172 2.3515-4.505 1-7 4.7719-2.38 7.4385-6.213 8-11.5h199Z"/><path style="opacity:1" fill="#292526" d="M60.5 319.5c3.0179 2.755 3.6846 6.089 2 10 2.0634 1.742 4.0634 3.409 6 5 2.8911 1.917 5.0577 4.584 6.5 8 .9818 3.275.1485 5.941-2.5 8-.9584.453-1.7917 1.119-2.5 2-1.6471 7.803-6.1471 12.803-13.5 15-.8514 5.052-.1847 10.052 2 15 1.4864 4.196 2.6531 8.529 3.5 13 .3826.556.8826.889 1.5 1 2.5603 2.72 5.5603 4.886 9 6.5 6.6667 6.667 6.6667 13.333 0 20 35.665.5 71.332.667 107 .5v2c-36.171-.332-72.171.002-108 1 .1427 1.762-.1906 3.429-1 5 3.4308 7.792 6.7641 15.626 10 23.5-1.2221 2.034-2.2221 4.2-3 6.5-1.5982.11-3.2648.443-5 1-1.3066-1.316-2.8066-2.316-4.5-3-.3028-4.394-.9695-8.727-2-13-1.6745 5.221-2.8412 10.554-3.5 16 1.1406 3.007 3.3073 5.007 6.5 6 1.7179 2.778 1.7179 5.444 0 8-.8333-1-1.6667-2-2.5-3-1.3333 1.333-2.6667 2.667-4 4-.7299-5.653-3.3965-6.319-8-2-2.8147-2.587-2.4814-4.754 1-6.5-.8081-.308-1.4747-.808-2-1.5 1.4122-1.306 3.0789-2.14 5-2.5-.5814-.893-.9148-1.893-1-3 1.122-4.441 1.7886-8.941 2-13.5-3.496 1.256-6.6627.589-9.5-2-.467 4.837-.967 9.67-1.5 14.5 1.7797 4.966 2.2797 10.132 1.5 15.5-.6667.667-1.3333 1.333-2 2-1.9935-4.907-3.4935-4.907-4.5 0-1.2989-.59-2.1322-1.59-2.5-3-1.4639 3.867-2.6306 3.7-3.5-.5 1.2536-2.254 1.9203-4.42 2-6.5-2.7388-3.527-1.9055-4.527 2.5-3 .9454-.405 1.6121-1.072 2-2 3.638-13.584 1.138-25.917-7.5-37-3-1.333-6-1.333-9 0-2.9757 5.085-5.4757 10.419-7.5 16-1.7137 1.543-3.2137 3.21-4.5 5 1.8056 6.218 2.8056 12.551 3 19 1.4305.079 2.7638-.254 4-1 2.7887 1.808 5.6221 3.475 8.5 5 .9808 3.284.1475 5.951-2.5 8-.7508-.876-1.2508-1.876-1.5-3-2.1149 5.616-4.4482 5.95-7 1-.3333 1-.6667 2-1 3-.7412-1.141-1.5745-1.141-2.5 0-1.9207-4.992-2.9207-4.992-3 0h-3c.2361-2.726-.59719-5.059-2.5-7-2.64395 11.752-4.64395 11.419-6-1l-1 6c-.38257.556-.88257.889-1.5 1v-108c1.16974 1.779 2.8364 2.779 5 3-.14945 1.052.01722 2.052.5 3 3.09107 2.64 5.7577 5.64 8 9 1.0495-1.017 2.2161-1.184 3.5-.5-1.1341 1.016-.8008 1.683 1 2-.8567.689-1.5233 1.522-2 2.5.8966.169 1.8966.502 3 1-.3333.667-.6667 1.333-1 2 1.227 1.09 2.0604 2.424 2.5 4 3.3839.476 6.3839 1.81 9 4 .9847 1.866 1.4847 3.866 1.5 6-.796 5.632-1.796 10.965-3 16 2.2427.974 4.576 1.308 7 1-1.4665-3.574-2.2998-7.24-2.5-11 1.7658-2.096 3.0991-4.429 4-7 1.0674-.691 2.2341-1.191 3.5-1.5 2.2663-2.391 4.433-4.891 6.5-7.5.9181-2.563.4181-4.73-1.5-6.5 1.9145-3.077 2.5812-6.244 2-9.5-.6667-1.667-1.3333-3.333-2-5 1.4891-8.044-.1776-15.378-5-22-2.2408-.629-4.2408-1.629-6-3-.3221-3.85 1.0113-7.017 4-9.5-1.671-5.175-4.0043-10.008-7-14.5 2.1193-3.525 3.9527-7.192 5.5-11 3.225-2.088 6.8917-4.088 11-6 4.3861.173 8.0528 1.84 11 5 .8373-1.507 2.0039-2.007 3.5-1.5 2.8581 2.754 2.5248 4.92-1 6.5Z"/><path style="opacity:1" fill="#b4b7b8" d="M13.5 315.5c-1.5975-3.357-3.76415-3.69-6.5-1-2.64845-.714-5.14845-1.714-7.5-3v-3c6.79787 3.94 13.4645 3.94 20 0-.5-.333-1-.667-1.5-1-5.0143 2.491-10.18093 2.658-15.5.5 5.96265.113 11.6293-1.054 17-3.5.7298 1.434 1.7298 2.6 3 3.5-3.1106 2.529-6.1106 5.029-9 7.5Z"/><path style="opacity:1" fill="#b9bcbd" d="M289.5 303.5c17.346-.333 34.679 0 52 1-1.614 2.657-.948 4.49 2 5.5-3.039 7.181-7.039 13.681-12 19.5-18.159-.997-36.492-1.33-55-1-.333-4-.667-4-1 0-19.409-.32-38.743.013-58 1 3.007-8.677 6.007-17.344 9-26h63Z"/><path style="opacity:1" fill="#bdbfc0" d="M499.5 304.5v39c-19.409-.32-38.743.013-58 1 4.507-13.355 9.507-26.521 15-39.5 14.329-.5 28.663-.667 43-.5Z"/><path style="opacity:1" fill="#bec1c1" d="M60.5 319.5h158c-1.487 5.62-3.487 10.953-6 16-47.83-.999-95.83-1.332-144-1-1.9366-1.591-3.9366-3.258-6-5 1.6846-3.911 1.0179-7.245-2-10Z"/><path style="opacity:1" fill="#c2c4c4" d="M331.5 329.5c-1.7 1.71-3.033 3.71-4 6 5.461 2.033 10.794 4.366 16 7 6.136-2.302 9.969-6.636 11.5-13 1.166 3.003 2.833 5.67 5 8 .495 1.973.662 3.973.5 6-29.907.329-59.74-.005-89.5-1-.483.948-.649 1.948-.5 3h-59c1.805-5.416 3.805-10.749 6-16 19.257-.987 38.591-1.32 58-1 .333-4 .667-4 1 0 18.508-.33 36.841.003 55 1Z"/><path style="opacity:1" fill="#bdbfc0" d="M425.5 303.5c9.672-.166 19.339 0 29 .5-5.259 13.955-10.592 27.788-16 41.5h-15c.829-2.969.995-5.969.5-9-2.167-5-4.333-10-6.5-15 .645-2.728 1.479-5.395 2.5-8 3.443-2.497 4.276-5.663 2.5-9.5.948-.483 1.948-.649 3-.5Z"/><path style="opacity:1" fill="#2d2928" d="M-.5 300.5c8.27885.94 16.6122 1.273 25 1 66.6667.667 133.333 1.333 200 2h-199c-.5615 5.287-3.2281 9.12-8 11.5 1.3515 2.495 1.0181 4.828-1 7 5.6668 9.182 10.6668 18.682 15 28.5.1602 1.699-.0065 3.366-.5 5-2.3745 2.039-4.3745 4.372-6 7-3.8041-2.332-7.9708-3.832-12.5-4.5-2.3102-1.637-3.81021-3.804-4.5-6.5-1.08524-.793-2.2519-1.46-3.5-2-1.57536.956-3.24203 1.623-5 2v-40c2.35155 1.286 4.85155 2.286 7.5 3 2.73585-2.69 4.9025-2.357 6.5 1 2.8894-2.471 5.8894-4.971 9-7.5-1.2702-.9-2.2702-2.066-3-3.5-5.3707 2.446-11.03735 3.613-17 3.5 5.31907 2.158 10.4857 1.991 15.5-.5.5.333 1 .667 1.5 1-6.5355 3.94-13.20213 3.94-20 0v-8Z"/><path style="opacity:1" fill="#babdbe" d="M13.5 315.5c.1602 1.699-.0065 3.366-.5 5-.7504-.626-1.5838-1.126-2.5-1.5 1.3333-.667 1.3333-1.333 0-2 1.0266-.513 2.0266-1.013 3-1.5Z"/><path style="opacity:1" fill="#b3b7b8" d="M1.5 304.5c4.48115-1.148 9.1478-1.315 14-.5-4.5939 1.627-9.26061 1.794-14 .5Z"/><path style="opacity:1" fill="#c4c6c7" d="M68.5 334.5c48.17-.332 96.17.001 144 1-1.429 5.629-3.429 10.963-6 16-44.497-.999-89.164-1.332-134-1 2.6485-2.059 3.4818-4.725 2.5-8-1.4423-3.416-3.6089-6.083-6.5-8Z"/><path style="opacity:1" fill="#c3c5c6" d="M365.5 335.5c5.734 3.348 7.901 8.348 6.5 15-1.785-.74-3.618-1.407-5.5-2-.992-4.283-1.326-8.616-1-13Z"/><path style="opacity:1" fill="#cacccc" d="M72.5 350.5c44.836-.332 89.503.001 134 1-1.429 5.629-3.429 10.963-6 16h-144c7.3529-2.197 11.8529-7.197 13.5-15 .7083-.881 1.5416-1.547 2.5-2Z"/><path style="opacity:1" fill="#c8c9ca" d="M423.5 345.5h15c-1.766 6.639-4.099 12.973-7 19h-227c2.138-6.415 4.471-12.749 7-19h59c-.149-1.052.017-2.052.5-3 29.76.995 59.593 1.329 89.5 1-2.047.956-4.213 1.956-6.5 3-.749 1.135-.583 2.135.5 3 1.236-.746 2.57-1.079 4-1-.788 4.085-.122 8.085 2 12 1.922-1.503 3.088-3.503 3.5-6 1.982 7.998 3.649 7.664 5-1 .543 2.131 1.376 4.131 2.5 6 1.299-.59 2.132-1.59 2.5-3 .595 3.582 1.929 3.916 4 1 2.276 2.564 4.276 2.23 6-1 .333.667.667 1.333 1 2 1.84-1.665 2.507-3.665 2-6-3.359-2.04-6.692-4.04-10-6-.325-4.11-1.158-8.11-2.5-12 .285-2.069 1.452-3.402 3.5-4 1.52-3.771 3.186-7.438 5-11 .814-5.585 2.314-10.918 4.5-16 1.254 1.759.921 3.259-1 4.5 3.025 7.37 6.525 14.537 10.5 21.5.667 5 .667 10 0 15-.29 1.544-.956 2.877-2 4-1.049-1.017-2.216-1.184-3.5-.5.722 3.102.889 6.268.5 9.5 1.533.444 3.033.777 4.5 1 1.385-3.878 2.551-3.878 3.5 0l1-1c-.37-7.02-.203-14.02.5-21 .333-.667.667-1.333 1-2 1.909.848 3.909 1.182 6 1-.427 4.324-.761 8.658-1 13-2.442-.146-3.109.687-2 2.5-2.348 1.688-2.515 3.522-.5 5.5 1.154-1.243 2.488-2.243 4-3 1.275 4.746 3.109 5.079 5.5 1l2 2c1.131-1.574 1.298-3.241.5-5-3.418-1.408-5.251-3.908-5.5-7.5 1.963-13.344 3.13-13.511 3.5-.5 2.565 1.679 5.398 2.346 8.5 2Z"/><path style="opacity:1" fill="#d1d1d1" d="M31.5 350.5h2c1.7592 1.371 3.7592 2.371 6 3 4.8224 6.622 6.4891 13.956 5 22 .6667 1.667 1.3333 3.333 2 5 .5812 3.256-.0855 6.423-2 9.5 1.9181 1.77 2.4181 3.937 1.5 6.5-2.067 2.609-4.2337 5.109-6.5 7.5-1.2659.309-2.4326.809-3.5 1.5-.9009 2.571-2.2342 4.904-4 7 .2002 3.76 1.0335 7.426 2.5 11-2.424.308-4.7573-.026-7-1 1.204-5.035 2.204-10.368 3-16-.0153-2.134-.5153-4.134-1.5-6-2.6161-2.19-5.6161-3.524-9-4-.4396-1.576-1.273-2.91-2.5-4 .3333-.667.6667-1.333 1-2-1.1034-.498-2.1034-.831-3-1 .4767-.978 1.1433-1.811 2-2.5-1.8008-.317-2.1341-.984-1-2-1.2839-.684-2.4505-.517-3.5.5-2.2423-3.36-4.90893-6.36-8-9-.48278-.948-.64945-1.948-.5-3-2.1636-.221-3.83026-1.221-5-3v-19c1.75797-.377 3.42464-1.044 5-2 1.2481.54 2.41476 1.207 3.5 2 .68979 2.696 2.1898 4.863 4.5 6.5 4.5292.668 8.6959 2.168 12.5 4.5 1.6255-2.628 3.6255-4.961 6-7 .4935-1.634.6602-3.301.5-5ZM56.5 367.5h144c-1.429 5.629-3.429 10.963-6 16-45.164-.999-90.497-1.332-136-1-2.1847-4.948-2.8514-9.948-2-15Z"/><path style="opacity:1" fill="#d0d1d1" d="M204.5 364.5h227c-4.531 12.258-8.864 24.591-13 37-1.322.17-2.489-.163-3.5-1-.202-1.756-.702-3.422-1.5-5-3.064-.621-6.064-1.455-9-2.5 4.035-2.748 4.702-6.082 2-10-2.667-.667-5.333-.667-8 0-4.93 2.31-10.097 3.81-15.5 4.5-5.717-.941-11.217-2.608-16.5-5-1.573.252-2.906.918-4 2-34.218-.341-68.385-1.341-102.5-3-20.833.672-41.667 1.339-62.5 2 2.138-6.415 4.471-12.749 7-19Z"/><path style="opacity:1" fill="#cececf" d="M499.5 343.5v39h-72c4.471-12.748 9.138-25.415 14-38 19.257-.987 38.591-1.32 58-1Z"/><path style="opacity:1" fill="#d9d9d9" d="M362.5 384.5c-.251 3.831.916 7.164 3.5 10 2.333 1.506 4.5 3.173 6.5 5-2.915 3.847-2.248 7.014 2 9.5-3.333 4.667-6.667 9.333-10 14-4.041.827-8.041.66-12-.5.38-3.075 1.713-5.575 4-7.5-.167-.5-.333-1-.5-1.5-1.557-4.609-3.557-8.942-6-13-3.064-1.064-5.564-2.897-7.5-5.5-6.953-3.225-13.62-2.559-20 2-1 3.333-2 3.333-3 0-.948-.483-1.948-.649-3-.5.203 1.89-.463 3.39-2 4.5 1.519 1.351 2.852 2.851 4 4.5-1.716 1.049-3.049 2.382-4 4-42.406-.327-84.739.006-127 1 2.941-9.159 6.275-18.159 10-27 20.833-.661 41.667-1.328 62.5-2 34.115 1.659 68.282 2.659 102.5 3Z"/><path style="opacity:1" fill="#272324" d="M418.5 401.5c-.567 1.53-1.233 3.03-2 4.5.594.464 1.261.631 2 .5 3.595.752 6.928 2.086 10 4 1.001 1.289.834 2.622-.5 4-1.987.718-3.821 1.718-5.5 3 4.316 1.12 4.982 3.287 2 6.5 24.998.5 49.998.667 75 .5v2h-74c-.079 1.43.254 2.764 1 4-1.067 7.783-2.4 15.449-4 23 .811.716 1.478 1.55 2 2.5-.823 2.627-1.49 5.294-2 8-4.285 5.954-8.952 11.621-14 17-.195 1.235-.195 2.735 0 4.5-3.119 1.194-3.452 2.694-1 4.5-3.344.57-3.677 1.736-1 3.5-.525.692-1.192 1.192-2 1.5.913 1.414.913 2.914 0 4.5h-34c-1.16-1.703-.493-2.369 2-2 .079-1.43-.254-2.764-1-4 1.116.098 2.116-.402 3-1.5-.8-1.788-1.134-3.455-1-5 5.22 1.159 8.22-1.008 9-6.5 2.839-.821 5.172-2.487 7-5-1.355-1.175-1.188-2.175.5-3 .333.667.667 1.333 1 2 .969-2.234 2.302-4.234 4-6-.333-2-.667-4-1-6 7.212-2.199 9.378-6.866 6.5-14-2.164-.914-4.164-2.081-6-3.5-2.333-.667-4.667-.667-7 0-1.917 2.498-3.584 5.165-5 8-6.308 1.694-12.475 3.861-18.5 6.5-2.424-3.155-5.091-6.155-8-9-.781-1.229-1.281-2.562-1.5-4 3.664-6.5 6.664-13.333 9-20.5-4-.667-8-.667-12 0-1.52 1.885-2.52 4.051-3 6.5 1.303 2.468 2.803 4.801 4.5 7 .667 1.667.667 3.333 0 5l-9 6c-4.957 8.417-6.79 17.417-5.5 27-.44 2.265-1.106 4.432-2 6.5-.526 3.721.141 7.388 2 11-.111 1.722-.611 1.888-1.5.5-.49 1.293-.657 2.627-.5 4h-19c3.307-11.043 5.641-22.376 7-34-4.303.704-7.803-.63-10.5-4-3.184-5.205-6.184-10.539-9-16-6.16-4.286-7.16-9.619-3-16 .816-1.323 1.983-1.989 3.5-2 1-.333 1.667-1 2-2 .667 0 1-.333 1-1 .667 0 1-.333 1-1 2.437-1.933 4.771-4.1 7-6.5-1.778-2.135-2.445-4.635-2-7.5.951-1.618 2.284-2.951 4-4-1.148-1.649-2.481-3.149-4-4.5 1.537-1.11 2.203-2.61 2-4.5 1.052-.149 2.052.017 3 .5 1 3.333 2 3.333 3 0 6.38-4.559 13.047-5.225 20-2 1.936 2.603 4.436 4.436 7.5 5.5 2.443 4.058 4.443 8.391 6 13 .167.5.333 1 .5 1.5-2.287 1.925-3.62 4.425-4 7.5 3.959 1.16 7.959 1.327 12 .5 3.333-4.667 6.667-9.333 10-14-4.248-2.486-4.915-5.653-2-9.5-2-1.827-4.167-3.494-6.5-5-2.584-2.836-3.751-6.169-3.5-10 1.094-1.082 2.427-1.748 4-2 5.283 2.392 10.783 4.059 16.5 5 5.403-.69 10.57-2.19 15.5-4.5 2.667-.667 5.333-.667 8 0 2.702 3.918 2.035 7.252-2 10 2.936 1.045 5.936 1.879 9 2.5.798 1.578 1.298 3.244 1.5 5 1.011.837 2.178 1.17 3.5 1Z"/><path style="opacity:1" fill="#d6d7d7" d="M58.5 382.5c45.503-.332 90.836.001 136 1-1.146 4.938-2.813 9.605-5 14-41.83-.999-83.83-1.332-126-1-.6174-.111-1.1174-.444-1.5-1-.8469-4.471-2.0136-8.804-3.5-13Z"/><path style="opacity:1" fill="#d4d4d4" d="M401.5 384.5c2.476 1.621 2.642 3.621.5 6-.273-1.829-1.107-3.329-2.5-4.5.916-.278 1.582-.778 2-1.5Z"/><path style="opacity:1" fill="#cdcdcd" d="M369.5 386.5c6.687 2.837 13.687 4.337 21 4.5-6.885 2.298-13.552 1.798-20-1.5-.886-.825-1.219-1.825-1-3Z"/><path style="opacity:1" fill="#d4d4d4" d="M394.5 391.5c3.635.156 3.968 1.322 1 3.5-4.031 3.154-8.198 3.654-12.5 1.5-4.98 2.029-9.48.862-13.5-3.5 4.561.869 9.227 1.703 14 2.5 3.384-.643 6.717-1.477 10-2.5.556-.383.889-.883 1-1.5Z"/><path style="opacity:1" fill="#dbdbdb" d="M427.5 382.5h72v27c-23.839-.331-47.506.002-71 1-3.072-1.914-6.405-3.248-10-4 2.608-8.16 5.608-16.16 9-24Z"/><path style="opacity:1" fill="#cfcfcf" d="M24.5 404.5c1.8675 1.286 2.0342 2.619.5 4-.49-1.293-.6567-2.627-.5-4Z"/><path style="opacity:1" fill="#9c9b9b" d="M378.5 401.5c3.098-.087 3.432.413 1 1.5.951.718 1.117 1.551.5 2.5-.667-1.333-1.333-1.333-2 0-.579-1.428-.412-2.762.5-4Z"/><path style="opacity:1" fill="#e1e1e1" d="M63.5 396.5c42.17-.332 84.17.001 126 1-2.766 8.977-6.099 17.644-10 26-35.668.167-71.335 0-107-.5 6.6667-6.667 6.6667-13.333 0-20-3.4397-1.614-6.4397-3.78-9-6.5Z"/><path style="opacity:1" fill="#e3e2e2" d="M314.5 409.5c-.445 2.865.222 5.365 2 7.5-2.229 2.4-4.563 4.567-7 6.5-42.347.661-84.347-.005-126-2 .941-3.825 2.274-7.491 4-11 42.261-.994 84.594-1.327 127-1Z"/><path style="opacity:1" fill="#e3e3e3" d="M499.5 409.5v15c-25.002.167-50.002 0-75-.5 2.982-3.213 2.316-5.38-2-6.5 1.679-1.282 3.513-2.282 5.5-3 1.334-1.378 1.501-2.711.5-4 23.494-.998 47.161-1.331 71-1Z"/><path style="opacity:1" fill="#737373" d="M183.5 421.5c41.653 1.995 83.653 2.661 126 2 0 .667-.333 1-1 1h-126c-.237-1.291.096-2.291 1-3Z"/><path style="opacity:1" fill="#e7e6e6" d="M71.5 426.5c35.829-.998 71.829-1.332 108-1h128c-.333 1-1 1.667-2 2-77.832-.999-155.832-1.333-234-1Z"/><path style="opacity:1" fill="#fefefe" d="M71.5 426.5c78.168-.333 156.168.001 234 1-1.517.011-2.684.677-3.5 2-4.16 6.381-3.16 11.714 3 16 2.816 5.461 5.816 10.795 9 16 2.697 3.37 6.197 4.704 10.5 4-1.359 11.624-3.693 22.957-7 34H-.5v-21c.61743-.111 1.11742-.444 1.5-1l1-6c1.35605 12.419 3.35605 12.752 6 1 1.90281 1.941 2.7361 4.274 2.5 7h3c.0793-4.992 1.0793-4.992 3 0 .9255-1.141 1.7588-1.141 2.5 0 .3333-1 .6667-2 1-3 2.5518 4.95 4.8851 4.616 7-1 .2492 1.124.7492 2.124 1.5 3 2.6475-2.049 3.4808-4.716 2.5-8-2.8779-1.525-5.7113-3.192-8.5-5-1.2362.746-2.5695 1.079-4 1-.1944-6.449-1.1944-12.782-3-19 1.2863-1.79 2.7863-3.457 4.5-5 2.0243-5.581 4.5243-10.915 7.5-16 3-1.333 6-1.333 9 0 8.638 11.083 11.138 23.416 7.5 37-.3879.928-1.0546 1.595-2 2-4.4055-1.527-5.2388-.527-2.5 3-.0797 2.08-.7464 4.246-2 6.5.8694 4.2 2.0361 4.367 3.5.5.3678 1.41 1.2011 2.41 2.5 3 1.0065-4.907 2.5065-4.907 4.5 0 .6667-.667 1.3333-1.333 2-2 .7797-5.368.2797-10.534-1.5-15.5.533-4.83 1.033-9.663 1.5-14.5 2.8373 2.589 6.004 3.256 9.5 2-.2114 4.559-.878 9.059-2 13.5.0852 1.107.4186 2.107 1 3-1.9211.36-3.5878 1.194-5 2.5.5253.692 1.1919 1.192 2 1.5-3.4814 1.746-3.8147 3.913-1 6.5 4.6035-4.319 7.2701-3.653 8 2 1.3333-1.333 2.6667-2.667 4-4 .8333 1 1.6667 2 2.5 3 1.7179-2.556 1.7179-5.222 0-8-3.1927-.993-5.3594-2.993-6.5-6 .6588-5.446 1.8255-10.779 3.5-16 1.0305 4.273 1.6972 8.606 2 13 1.6934.684 3.1934 1.684 4.5 3 1.7352-.557 3.4018-.89 5-1 .7779-2.3 1.7779-4.466 3-6.5-3.2359-7.874-6.5692-15.708-10-23.5.8094-1.571 1.1427-3.238 1-5Z"/><path style="opacity:1" fill="#fdfdfd" d="M370.5 499.5h-34c-.157-1.373.01-2.707.5-4 .889 1.388 1.389 1.222 1.5-.5-1.859-3.612-2.526-7.279-2-11 .894-2.068 1.56-4.235 2-6.5-1.29-9.583.543-18.583 5.5-27l9-6c.667-1.667.667-3.333 0-5-1.697-2.199-3.197-4.532-4.5-7 .48-2.449 1.48-4.615 3-6.5 4-.667 8-.667 12 0-2.336 7.167-5.336 14-9 20.5.219 1.438.719 2.771 1.5 4 2.909 2.845 5.576 5.845 8 9 6.025-2.639 12.192-4.806 18.5-6.5 1.416-2.835 3.083-5.502 5-8 2.333-.667 4.667-.667 7 0 1.836 1.419 3.836 2.586 6 3.5 2.878 7.134.712 11.801-6.5 14 .333 2 .667 4 1 6-1.698 1.766-3.031 3.766-4 6-.333-.667-.667-1.333-1-2-1.688.825-1.855 1.825-.5 3-1.828 2.513-4.161 4.179-7 5-.78 5.492-3.78 7.659-9 6.5-.134 1.545.2 3.212 1 5-.884 1.098-1.884 1.598-3 1.5.746 1.236 1.079 2.57 1 4-2.493-.369-3.16.297-2 2Z"/><path style="opacity:1" fill="#fefefe" d="M499.5 426.5v73h-95c.913-1.586.913-3.086 0-4.5.808-.308 1.475-.808 2-1.5-2.677-1.764-2.344-2.93 1-3.5-2.452-1.806-2.119-3.306 1-4.5-.195-1.765-.195-3.265 0-4.5 5.048-5.379 9.715-11.046 14-17 .51-2.706 1.177-5.373 2-8-.522-.95-1.189-1.784-2-2.5 1.6-7.551 2.933-15.217 4-23-.746-1.236-1.079-2.57-1-4h74Z"/><path style="opacity:1" fill="#b5b4b4" d="M422.5 433.5c1.143 2.568.976 5.235-.5 8-.175-2.657-.008-5.324.5-8Z"/><path style="opacity:1" fill="#fdfdfd" d="M3.5 448.5c1.05198-.149 2.05198.017 3 .5-.33333.333-.66667.667-1 1 2.10887 1.141 3.94221 2.641 5.5 4.5 1.3141 4.254 2.1474 8.587 2.5 13-3.2239.297-6.22391-.37-9-2-.99543-5.628-1.32876-11.294-1-17Z"/><path style="opacity:1" fill="#bcbabb" d="M417.5 451.5c1.282 1.208 1.282 2.542 0 4-.406-1.057-.406-2.391 0-4Z"/><path style="opacity:1" fill="#c6c4c5" d="M402.5 456.5c1.212 1.764.879 3.43-1 5-.333-.167-.667-.333-1-.5 1.082-1.33 1.749-2.83 2-4.5Z"/><path style="opacity:1" fill="#a5a4a4" d="M.5 461.5c1.83702.139 2.17036.806 1 2-.79755-.457-1.13088-1.124-1-2Z"/><path style="opacity:1" fill="#acaaab" d="M27.5 471.5c.06-.543.3933-.876 1-1 1.6376 1.205 1.9709 2.538 1 4-.6757-1.102-1.3423-2.102-2-3Z"/><path style="opacity:1" fill="#b6b4b4" d="M47.5 469.5c2.6247.966 2.6247 1.966 0 3-.587-.733-.587-1.733 0-3Z"/></svg>